<svg xmlns="http://www.w3.org/2000/svg" viewBox="0 0 1200 800" width="1200" height="800">
  <defs>
    <radialGradient id="glow_sqlite_v" cx="78%" cy="18%" r="55%">
      <stop offset="0%" stop-color="#E63946" stop-opacity="0.18" />
      <stop offset="100%" stop-color="#E63946" stop-opacity="0" />
    </radialGradient>
    <pattern id="grid_sqlite_v" width="48" height="48" patternUnits="userSpaceOnUse">
      <path d="M 48 0 L 0 0 0 48" fill="none" stroke="rgba(237,227,221,0.12)" stroke-width="1"/>
    </pattern>
  </defs>
  <rect width="1200" height="800" fill="#17100F" />
  <rect width="1200" height="800" fill="url(#grid_sqlite_v)" />
  <rect width="1200" height="800" fill="url(#glow_sqlite_v)" />
  <rect x="0.5" y="0.5" width="1199" height="799" fill="none" stroke="rgba(237,227,221,0.14)" />
  
    <g transform="translate(600,380)">
      <g transform="translate(-90,0)">
        <ellipse cx="0" cy="-50" rx="55" ry="18" fill="#221918" stroke="#E63946" stroke-width="2" />
        <ellipse cx="0" cy="10" rx="55" ry="18" fill="#221918" stroke="#E63946" stroke-width="2" />
        <path d="M-55,-50 L-55,10 A55,18 0 0,0 55,10 L55,-50" fill="none" stroke="#E63946" stroke-width="2" />
        <text x="0" y="-10" text-anchor="middle" font-family="sans-serif" font-size="13" font-weight="bold" fill="#EDE3DD">SQLITE</text>
      </g>
      <g transform="translate(90,0)">
        <ellipse cx="0" cy="-70" rx="65" ry="22" fill="#221918" stroke="#D4A24E" stroke-width="2" />
        <ellipse cx="0" cy="-10" rx="65" ry="22" fill="#D4A24E" stroke-width="2" />
        <ellipse cx="0" cy="50" rx="65" ry="22" fill="#221918" stroke="#D4A24E" stroke-width="2" />
        <path d="M-65,-70 L-65,50 A65,22 0 0,0 65,50 L65,-70" fill="none" stroke="#D4A24E" stroke-width="2" />
        <text x="0" y="-20" text-anchor="middle" font-family="sans-serif" font-size="13" font-weight="bold" fill="#D4A24E">POSTGRES</text>
      </g>
    </g>
  <text x="64" y="732" font-family="Arial, Helvetica, sans-serif" font-size="20" font-weight="700" letter-spacing="3" fill="#EDE3DD" opacity="0.6">DATABASE ARCH</text>
</svg>