<svg xmlns="http://www.w3.org/2000/svg" viewBox="0 0 1200 800" width="1200" height="800">
  <defs>
    <radialGradient id="glow_vibe" cx="78%" cy="18%" r="55%">
      <stop offset="0%" stop-color="#E63946" stop-opacity="0.22" />
      <stop offset="100%" stop-color="#E63946" stop-opacity="0" />
    </radialGradient>
    <pattern id="grid_vibe" width="48" height="48" patternUnits="userSpaceOnUse">
      <path d="M 48 0 L 0 0 0 48" fill="none" stroke="rgba(237,227,221,0.12)" stroke-width="1"/>
    </pattern>
  </defs>
  <rect width="1200" height="800" fill="#17100F" />
  <rect width="1200" height="800" fill="url(#grid_vibe)" />
  <rect width="1200" height="800" fill="url(#glow_vibe)" />
  <rect x="0.5" y="0.5" width="1199" height="799" fill="none" stroke="rgba(237,227,221,0.14)" />
  
  <g transform="translate(600,380)">
    <rect x="-190" y="-120" width="380" height="240" rx="20" fill="#221918" stroke="#E63946" stroke-width="2" />
    <polygon points="-110,-40 -60,-80 -60,-50 30,-50 30,-30 -60,-30 -60,0" fill="#D4A24E" />
    <rect x="50" y="-80" width="90" height="60" rx="8" fill="#7A2229" opacity="0.6" stroke="#EDE3DD" stroke-width="1.5" />
    <circle cx="95" cy="-50" r="14" fill="#E63946" />
    <line x1="-140" y1="40" x2="140" y2="40" stroke="rgba(237,227,221,0.2)" stroke-width="3" stroke-linecap="round" />
    <line x1="-140" y1="70" x2="40" y2="70" stroke="#D4A24E" stroke-width="3" stroke-linecap="round" />
    <polygon points="120,65 128,73 145,80 128,87 120,95 112,87 95,80 112,73" fill="#EDE3DD" />
  </g>
  
  <text x="64" y="732" font-family="Arial, Helvetica, sans-serif" font-size="20" font-weight="700" letter-spacing="3" fill="#EDE3DD" opacity="0.6">VIBE CODING &amp; FULL STACK AI</text>
</svg>
